<svg width="440" height="280" viewBox="0 0 440 280" xmlns="http://www.w3.org/2000/svg">
  <rect width="440" height="280" fill="#238EC4" />

  <text x="0" y="70" font-family="Montserrat, sans-serif" fill="white">
    <tspan font-size="32" font-weight="bold" x="40" dy="0">Color</tspan>
    <tspan font-size="32" font-weight="bold" x="40" dy="44">Highlighter</tspan>
    <tspan font-size="14" x="40" dy="30" opacity="0.8">by Mallowigi</tspan>
  </text>

  <g transform="translate(250, 20) scale(0.32)">
    <circle style="fill:#FFFFFF; opacity: 0.15;" cx="252.5" cy="252.5" r="280" />
    <circle style="fill:#84DBFF;" cx="252.5" cy="252.5" r="252.5" />
    <polygon style="fill:#FF7058;" points="91.4,390.1 116.6,364.9 143.5,391.8 125,410.3 " />
    <path style="fill:#324A5E;" d="M409.6,161.6l-62.9-62.9c-5.2-5.2-13.8-5.3-19.2-0.3L167.8,246.9l93.5,93.5l148.5-159.7
	C414.9,175.4,414.8,166.8,409.6,161.6z" />
    <rect x="136.616" y="288.783" transform="matrix(-0.7071 -0.7071 0.7071 -0.7071 130.1331 664.8694)"
          style="fill:#2B3B4E;" width="132.299" height="33.4" />
    <path style="fill:#FFFFFF;" d="M143.6,391.9l-13.5-13.5l0,0l-13.6-13.6c24.9-54.8,27.9-94.2,27.9-94.2l46.7,46.7l0,0l46.7,46.7
	C237.8,364,198.4,366.9,143.6,391.9z" />
  </g>

  <!-- Code Section -->
  <rect x="0" y="200" width="440" height="100" fill="#1E1E1E" />

  <g transform="translate(40, 225)" font-family="monospace" font-size="11">
    <!-- Line 1 -->
    <text x="0" y="0" fill="#9CDCFE">&lt;color</text>
    <text x="50" y="0" fill="#CE9178">name=</text>
    <text x="85" y="0" fill="#CE9178">"aqua"</text>
    <text x="130" y="0" fill="#CE9178">code=</text>

    <rect x="170" y="-10" width="55" height="14" rx="2" fill="#00FFFF" />
    <rect x="160" y="-9" width="8" height="12" fill="#00FFFF" />
    <text x="173" y="1" fill="#000" font-weight="bold">#00FFFF</text>

    <text x="230" y="0" fill="#9CDCFE">/&gt;</text>

    <!-- Line 2 -->
    <g transform="translate(0, 20)">
      <text x="0" y="0" fill="#9CDCFE">&lt;color</text>
      <text x="50" y="0" fill="#CE9178">name=</text>
      <text x="85" y="0" fill="#CE9178">"salmon"</text>
      <text x="142" y="0" fill="#CE9178">code=</text>

      <rect x="187" y="-10" width="55" height="14" rx="2" fill="#FA8072" />
      <rect x="177" y="-9" width="8" height="12" fill="#FA8072" />
      <text x="190" y="1" fill="#000" font-weight="bold">#FA8072</text>

      <text x="247" y="0" fill="#9CDCFE">/&gt;</text>
    </g>

    <!-- Line 3 -->
    <g transform="translate(0, 40)">
      <text x="0" y="0" fill="#9CDCFE">&lt;color</text>
      <text x="50" y="0" fill="#CE9178">name=</text>
      <text x="85" y="0" fill="#CE9178">"purple"</text>
      <text x="142" y="0" fill="#CE9178">code=</text>

      <rect x="187" y="-10" width="55" height="14" rx="2" fill="#800080" />
      <rect x="177" y="-9" width="8" height="12" fill="#800080" />
      <text x="190" y="1" fill="#FFF" font-weight="bold">#800080</text>

      <text x="247" y="0" fill="#9CDCFE">/&gt;</text>
    </g>
  </g>
</svg>
